<?xml version="1.0" standalone="no"?>
<!DOCTYPE svg PUBLIC "-//W3C//DTD SVG 20010904//EN"
 "http://www.w3.org/TR/2001/REC-SVG-20010904/DTD/svg10.dtd">
<svg version="1.0" xmlns="http://www.w3.org/2000/svg"
 width="500.000000pt" height="500.000000pt" viewBox="0 0 500.000000 500.000000"
 preserveAspectRatio="xMidYMid meet">

<g transform="translate(0.000000,500.000000) scale(0.100000,-0.100000)"
fill="#000000" stroke="none">
<path d="M2460 3414 c-26 -7 -58 -67 -65 -119 -9 -69 -24 -103 -47 -111 -11
-3 -46 -3 -78 1 -102 12 -156 -31 -154 -123 1 -39 6 -50 37 -79 35 -31 41 -33
112 -33 95 0 115 -16 115 -89 0 -26 3 -69 6 -94 6 -40 3 -48 -20 -72 -26 -26
-31 -27 -111 -24 -117 5 -126 14 -122 132 l2 89 -34 29 c-46 38 -81 44 -127
23 -67 -32 -94 -113 -57 -175 20 -34 51 -48 127 -58 85 -12 96 -27 93 -127 -2
-82 -1 -84 30 -115 42 -43 111 -47 160 -10 38 28 46 54 47 143 1 38 6 72 13
79 7 7 44 13 83 15 40 2 80 6 90 9 9 3 30 0 46 -6 16 -7 35 -11 43 -10 7 1 10
-2 7 -8 -4 -6 -8 -51 -9 -100 -3 -125 -13 -135 -124 -126 l-83 7 -35 -35 c-31
-31 -35 -41 -35 -87 0 -47 4 -56 36 -86 44 -42 105 -47 149 -12 49 38 71 123
40 154 -11 11 -15 12 -15 3 0 -7 -2 -10 -5 -7 -3 3 -3 13 1 22 6 15 7 15 20
-1 7 -10 14 -13 14 -7 0 25 42 54 78 55 32 0 34 1 14 9 -12 5 -30 7 -40 4 -13
-5 -13 -2 4 13 17 15 20 24 12 37 -6 10 -8 34 -5 52 3 19 2 32 -2 29 -5 -2 -7
10 -6 28 4 48 4 49 15 42 6 -3 10 -1 10 4 0 6 -7 11 -15 11 -8 0 -24 9 -35 20
-17 17 -20 33 -20 119 0 98 0 100 30 124 36 31 36 33 8 33 -13 0 -32 -11 -43
-23 -18 -21 -30 -23 -122 -24 -135 -3 -139 1 -136 124 4 122 12 132 110 123
40 -3 84 -1 98 4 38 14 65 66 63 122 0 42 -5 52 -35 78 -27 24 -42 30 -76 29
-23 -1 -49 -3 -57 -5z m148 -68 c-14 -10 -15 -15 -5 -26 10 -11 8 -11 -6 0
-18 13 -18 15 -1 27 23 17 34 16 12 -1z m17 -406 c-3 -5 -12 -10 -18 -10 -7 0
-6 4 3 10 19 12 23 12 15 0z m-26 -194 c9 -11 9 -16 -1 -22 -7 -4 -10 -4 -6 1
4 4 3 14 -3 22 -6 7 -9 13 -6 13 2 0 10 -6 16 -14z m67 -243 c-10 -10 -19 5
-10 18 6 11 8 11 12 0 2 -7 1 -15 -2 -18z"/>
<path d="M2689 3185 c-20 -13 -39 -32 -43 -41 -5 -14 -4 -15 9 -4 13 11 14 10
9 -5 -5 -13 -4 -16 4 -11 7 4 12 16 12 27 0 10 5 19 11 19 5 0 8 -4 5 -8 -2
-4 0 -14 5 -22 6 -11 8 -5 4 18 -6 34 2 40 24 20 10 -11 12 -10 9 1 -2 7 3 16
11 19 10 3 11 0 5 -9 -7 -12 -5 -12 9 0 23 18 22 21 -11 21 -15 0 -44 -11 -63
-25z"/>
<path d="M2790 3196 c0 -2 7 -7 16 -10 8 -3 12 -2 9 4 -6 10 -25 14 -25 6z"/>
<path d="M2635 3110 c-3 -5 -3 -31 1 -58 5 -38 10 -48 26 -49 16 -2 17 1 8 12
-6 8 -9 24 -5 35 5 15 1 26 -12 36 -17 13 -16 13 7 5 22 -7 26 -6 26 10 0 13
-3 15 -13 7 -9 -7 -13 -7 -13 1 0 14 -17 15 -25 1z"/>
<path d="M2820 2966 c0 -2 7 -7 16 -10 8 -3 12 -2 9 4 -6 10 -25 14 -25 6z"/>
<path d="M2716 2682 c-2 -4 12 -6 32 -4 62 6 69 10 20 11 -26 0 -49 -3 -52 -7z"/>
<path d="M2680 2636 c0 -4 7 -14 15 -22 8 -9 15 -11 15 -6 0 5 -7 15 -15 22
-8 7 -15 9 -15 6z"/>
<path d="M2690 2531 c0 -6 4 -13 10 -16 6 -3 7 1 4 9 -7 18 -14 21 -14 7z"/>
<path d="M2748 2453 c12 -2 30 -2 40 0 9 3 -1 5 -23 4 -22 0 -30 -2 -17 -4z"/>
<path d="M1004 2089 c-98 -28 -126 -159 -49 -236 29 -29 40 -33 84 -33 42 0
56 5 83 29 l32 28 -23 12 c-20 11 -26 10 -45 -8 -31 -29 -62 -26 -97 8 -77 77
17 215 96 141 19 -17 24 -18 40 -6 17 12 17 16 5 30 -27 34 -79 48 -126 35z"/>
<path d="M1266 2090 c-56 -17 -96 -73 -96 -135 0 -141 181 -189 245 -65 53
103 -43 232 -149 200z m75 -53 c68 -52 39 -176 -42 -177 -40 0 -74 43 -74 95
0 73 67 120 116 82z"/>
<path d="M1480 1955 l0 -135 25 0 c24 0 24 2 27 87 l3 87 33 -62 c43 -80 59
-81 97 -2 16 33 32 60 37 60 4 0 8 -38 8 -85 0 -84 0 -85 25 -85 l25 0 0 135
0 135 -33 0 c-31 0 -35 -4 -70 -76 -43 -87 -42 -87 -92 19 -24 50 -31 57 -56
57 l-29 0 0 -135z"/>
<path d="M1820 1955 l0 -135 25 0 c23 0 25 4 25 45 l0 45 41 0 c48 0 95 25
103 54 12 44 6 77 -19 101 -21 22 -33 25 -100 25 l-75 0 0 -135z m143 74 c5
-9 7 -28 3 -42 -6 -24 -11 -27 -51 -27 l-45 0 0 46 0 45 41 -3 c25 -2 46 -10
52 -19z"/>
<path d="M2071 1960 c-28 -71 -51 -132 -51 -135 0 -4 12 -5 27 -3 21 2 29 10
37 36 8 30 11 32 58 32 47 0 50 -2 64 -35 11 -27 20 -35 39 -35 14 0 25 2 25
5 0 2 -23 63 -51 135 -45 113 -55 130 -74 130 -20 0 -30 -16 -74 -130z m105
-14 c6 -24 4 -26 -30 -26 -38 0 -44 10 -27 52 5 13 13 32 16 43 7 18 9 17 21
-11 7 -17 16 -43 20 -58z"/>
<path d="M2310 1955 l0 -135 25 0 c24 0 24 2 27 87 l3 86 69 -86 c51 -66 74
-87 92 -87 l24 0 0 135 0 135 -30 0 -30 0 0 -86 0 -86 -32 40 c-18 22 -49 60
-68 86 -23 29 -43 45 -57 46 -23 0 -23 -2 -23 -135z"/>
<path d="M2598 2058 c69 -117 82 -147 82 -192 0 -42 2 -46 25 -46 23 0 25 4
25 48 0 32 8 61 26 92 14 25 37 64 50 88 l24 42 -29 0 c-25 0 -33 -8 -63 -65
l-34 -66 -33 66 c-29 58 -36 65 -63 65 l-30 0 20 -32z"/>
<path d="M2940 1955 l0 -135 25 0 c24 0 24 2 27 88 l3 87 70 -87 c50 -63 76
-88 93 -88 22 0 22 2 22 135 l0 135 -25 0 c-25 0 -25 -1 -25 -87 l-1 -88 -27
31 c-31 36 -46 54 -86 107 -19 24 -36 37 -52 37 l-24 0 0 -135z"/>
<path d="M3271 1961 c-28 -71 -51 -132 -51 -136 0 -3 12 -5 27 -3 21 2 29 10
37 36 8 30 11 32 58 32 47 0 50 -2 64 -35 11 -27 20 -35 39 -35 14 0 25 2 25
5 0 2 -23 63 -51 135 -45 112 -55 130 -74 130 -19 0 -29 -18 -74 -129z m105
-15 c6 -24 4 -26 -30 -26 -38 0 -44 10 -27 52 5 13 13 32 16 43 7 18 9 17 21
-11 7 -17 16 -43 20 -58z"/>
<path d="M3510 1955 l0 -135 25 0 c24 0 24 2 27 88 l3 87 33 -62 c41 -80 59
-81 96 -8 15 30 32 57 37 60 5 4 9 -29 9 -79 0 -85 0 -86 25 -86 l25 0 0 135
0 135 -30 0 c-26 0 -34 -8 -71 -75 -23 -42 -42 -75 -44 -73 -1 2 -19 36 -40
76 -33 64 -40 72 -66 72 l-29 0 0 -135z"/>
<path d="M3850 1955 l0 -135 95 0 c88 0 95 1 95 20 0 18 -7 20 -70 20 l-70 0
0 40 0 40 60 0 c53 0 60 2 60 20 0 18 -7 20 -60 20 l-60 0 0 35 0 35 70 0 c63
0 70 2 70 20 0 19 -7 20 -95 20 l-95 0 0 -135z"/>
<path d="M1942 1744 c-23 -16 -29 -39 -13 -48 5 -4 7 3 4 13 -3 14 3 24 24 35
15 8 23 15 18 16 -6 0 -21 -7 -33 -16z"/>
<path d="M2375 1746 c40 -30 45 -37 45 -59 0 -12 -7 -34 -16 -47 l-16 -25 21
24 c35 39 26 83 -23 107 -28 13 -29 13 -11 0z"/>
<path d="M1238 1734 c12 -8 22 -23 23 -32 0 -11 2 -13 6 -4 6 14 -24 52 -41
52 -6 0 0 -7 12 -16z"/>
<path d="M1483 1700 c0 -30 2 -43 4 -27 2 15 2 39 0 55 -2 15 -4 2 -4 -28z"/>
<path d="M1603 1680 c0 -41 2 -58 4 -37 2 20 2 54 0 75 -2 20 -4 3 -4 -38z"/>
<path d="M1673 1739 c21 -12 22 -42 2 -59 -19 -16 -19 -20 6 -50 l21 -25 -17
28 c-15 26 -15 30 -1 46 9 10 16 24 16 32 0 18 -19 39 -34 39 -6 0 -3 -5 7
-11z"/>
<path d="M2124 1680 l1 -65 45 -1 45 -1 -42 4 -42 4 -4 62 -3 62 0 -65z"/>
<path d="M2317 1732 c-38 -41 -7 -123 46 -121 18 1 17 2 -7 9 -36 11 -46 25
-46 67 0 22 7 37 22 47 12 9 18 16 12 16 -6 0 -18 -8 -27 -18z"/>
<path d="M2601 1747 c2 -1 13 -9 24 -17 19 -14 19 -14 6 3 -7 9 -18 17 -24 17
-6 0 -8 -1 -6 -3z"/>
<path d="M2795 1740 c3 -5 8 -10 11 -10 2 0 4 5 4 10 0 6 -5 10 -11 10 -5 0
-7 -4 -4 -10z"/>
<path d="M2962 1679 l1 -74 6 63 6 63 43 -56 c24 -30 47 -55 53 -55 5 0 8 30
7 68 l-1 67 -6 -65 -6 -65 -37 51 c-64 88 -68 88 -66 3z"/>
<path d="M3313 1680 c0 -41 2 -58 4 -37 4 37 5 37 48 37 43 0 44 0 48 -37 2
-21 4 -4 4 37 0 41 -2 60 -4 43 -4 -32 -6 -33 -48 -33 -42 0 -44 1 -48 33 -2
17 -4 -2 -4 -43z"/>
<path d="M3532 1683 l-2 -73 48 2 47 1 -42 4 c-40 4 -43 6 -43 33 0 26 4 29
38 33 l37 4 -37 1 c-34 2 -37 5 -41 35 -2 17 -5 -1 -5 -40z"/>
<path d="M3733 1685 c0 -38 2 -53 4 -32 2 20 2 52 0 70 -2 17 -4 1 -4 -38z"/>
<path d="M3803 1739 c23 -13 22 -45 -2 -61 -19 -14 -19 -15 5 -44 l25 -29 -17
28 c-15 25 -15 29 0 46 9 9 16 24 16 32 0 18 -19 39 -34 39 -6 0 -3 -5 7 -11z"/>
<path d="M3932 1683 l-2 -73 53 2 52 2 -47 3 c-45 4 -48 6 -48 33 0 26 4 29
38 33 l37 4 -37 1 c-34 2 -37 5 -41 35 -2 17 -5 -1 -5 -40z"/>
<path d="M1150 1721 c-15 -30 -12 -56 10 -82 l20 -24 -17 32 c-15 26 -16 37
-6 62 13 35 9 41 -7 12z"/>
<path d="M2530 1721 c-15 -30 -12 -56 10 -82 l20 -24 -17 32 c-15 26 -16 37
-6 62 13 35 9 41 -7 12z"/>
<path d="M970 1710 c6 -11 13 -20 16 -20 2 0 0 9 -6 20 -6 11 -13 20 -16 20
-2 0 0 -9 6 -20z"/>
<path d="M1015 1697 c-15 -18 -19 -31 -14 -57 l6 -35 2 33 c0 18 8 44 17 57
20 31 15 32 -11 2z"/>
<path d="M1372 1685 c0 -16 2 -22 5 -12 2 9 2 23 0 30 -3 6 -5 -1 -5 -18z"/>
<path d="M2002 1666 c7 -8 15 -12 17 -11 5 6 -10 25 -20 25 -5 0 -4 -6 3 -14z"/>
<path d="M2618 1673 c7 -3 16 -2 19 1 4 3 -2 6 -13 5 -11 0 -14 -3 -6 -6z"/>
<path d="M2752 1655 c-17 -37 -14 -45 4 -12 9 16 14 31 11 33 -2 2 -9 -7 -15
-21z"/>
<path d="M1247 1644 c-10 -13 -27 -24 -39 -24 -12 0 -19 -3 -15 -6 12 -12 56
6 68 27 15 30 7 31 -14 3z"/>
<path d="M2793 1663 c9 -2 25 -2 35 0 9 3 1 5 -18 5 -19 0 -27 -2 -17 -5z"/>
<path d="M1380 1641 c0 -15 38 -33 58 -28 13 4 11 5 -5 6 -12 0 -29 8 -37 17
-9 8 -16 11 -16 5z"/>
<path d="M2840 1645 c0 -5 5 -17 10 -25 5 -8 10 -10 10 -5 0 6 -5 17 -10 25
-5 8 -10 11 -10 5z"/>
<path d="M2004 1631 c-5 -5 -20 -11 -34 -14 l-25 -4 25 -1 c26 -2 58 13 49 22
-3 3 -10 2 -15 -3z"/>
<path d="M2600 1624 c-24 -9 -29 -13 -14 -13 11 -1 29 6 40 14 22 17 20 17
-26 -1z"/>
</g>
</svg>
